<svg xmlns="http://www.w3.org/2000/svg" xmlns:xlink="http://www.w3.org/1999/xlink" preserveAspectRatio="xMidYMid" width="212.156" height="44.344" viewBox="0 0 212.156 44.344">
  <defs>
    <style>
      .cls-1 {
        fill: #CFCFD0;
      }

      .cls-1, .cls-2, .cls-3 {
        fill-rule: evenodd;
      }

      .cls-2 {
        fill: #f25858;
      }

      .cls-3 {
        fill: #F7F7F7;
      }
    </style>
  </defs>
  <g>
    <path d="M209.368,42.926 C209.200,43.358 208.986,43.704 208.726,43.964 C208.466,44.224 208.092,44.354 207.604,44.354 C207.356,44.354 207.112,44.330 206.872,44.282 L206.956,43.538 C207.148,43.602 207.348,43.634 207.556,43.634 C207.836,43.634 208.056,43.548 208.216,43.376 C208.376,43.204 208.516,42.958 208.636,42.638 L209.092,41.462 L206.692,35.858 L207.604,35.858 L209.512,40.598 L209.536,40.598 L211.276,35.858 L212.164,35.858 L209.368,42.926 ZM204.248,38.366 C204.248,37.774 204.138,37.298 203.918,36.938 C203.698,36.578 203.324,36.398 202.796,36.398 C202.500,36.398 202.250,36.458 202.046,36.578 C201.842,36.698 201.678,36.856 201.554,37.052 C201.430,37.248 201.340,37.470 201.284,37.718 C201.228,37.966 201.200,38.222 201.200,38.486 L201.200,41.474 L200.384,41.474 L200.384,38.198 C200.384,37.926 200.364,37.678 200.324,37.454 C200.284,37.230 200.214,37.040 200.114,36.884 C200.014,36.728 199.876,36.608 199.700,36.524 C199.524,36.440 199.300,36.398 199.028,36.398 C198.836,36.398 198.642,36.442 198.446,36.530 C198.250,36.618 198.074,36.752 197.918,36.932 C197.762,37.112 197.636,37.340 197.540,37.616 C197.444,37.892 197.396,38.218 197.396,38.594 L197.396,41.474 L196.580,41.474 L196.580,37.094 C196.580,36.942 196.576,36.746 196.568,36.506 C196.560,36.266 196.548,36.050 196.532,35.858 L197.312,35.858 C197.328,36.010 197.340,36.178 197.348,36.362 C197.356,36.546 197.360,36.698 197.360,36.818 L197.384,36.818 C197.544,36.490 197.790,36.224 198.122,36.020 C198.454,35.816 198.824,35.714 199.232,35.714 C199.384,35.714 199.542,35.730 199.706,35.762 C199.870,35.794 200.030,35.856 200.186,35.948 C200.342,36.040 200.486,36.162 200.618,36.314 C200.750,36.466 200.864,36.662 200.960,36.902 C201.152,36.518 201.414,36.224 201.746,36.020 C202.078,35.816 202.472,35.714 202.928,35.714 C203.640,35.714 204.174,35.926 204.530,36.350 C204.886,36.774 205.064,37.334 205.064,38.030 L205.064,41.474 L204.248,41.474 L204.248,38.366 ZM190.024,38.882 C190.032,39.162 190.088,39.426 190.192,39.674 C190.296,39.922 190.440,40.138 190.624,40.322 C190.808,40.506 191.024,40.652 191.272,40.760 C191.520,40.868 191.788,40.922 192.076,40.922 C192.500,40.922 192.866,40.824 193.174,40.628 C193.482,40.432 193.716,40.206 193.876,39.950 L194.488,40.430 C194.152,40.854 193.782,41.158 193.378,41.342 C192.974,41.526 192.540,41.618 192.076,41.618 C191.660,41.618 191.274,41.544 190.918,41.396 C190.562,41.248 190.256,41.042 190.000,40.778 C189.744,40.514 189.542,40.202 189.394,39.842 C189.246,39.482 189.172,39.090 189.172,38.666 C189.172,38.242 189.244,37.850 189.388,37.490 C189.532,37.130 189.732,36.818 189.988,36.554 C190.244,36.290 190.544,36.084 190.888,35.936 C191.232,35.788 191.604,35.714 192.004,35.714 C192.444,35.714 192.832,35.788 193.168,35.936 C193.504,36.084 193.784,36.284 194.008,36.536 C194.232,36.788 194.402,37.082 194.518,37.418 C194.634,37.754 194.692,38.114 194.692,38.498 C194.692,38.554 194.692,38.614 194.692,38.678 C194.692,38.742 194.688,38.810 194.680,38.882 L190.024,38.882 ZM193.354,36.920 C193.038,36.572 192.588,36.398 192.004,36.398 C191.732,36.398 191.480,36.448 191.248,36.548 C191.016,36.648 190.812,36.784 190.636,36.956 C190.460,37.128 190.320,37.324 190.216,37.544 C190.112,37.764 190.052,37.994 190.036,38.234 L193.864,38.234 C193.840,37.706 193.670,37.268 193.354,36.920 ZM186.224,40.526 L186.200,40.526 C185.960,40.886 185.648,41.158 185.264,41.342 C184.880,41.526 184.484,41.618 184.076,41.618 C183.636,41.618 183.238,41.542 182.882,41.390 C182.526,41.238 182.222,41.030 181.970,40.766 C181.718,40.502 181.522,40.190 181.382,39.830 C181.242,39.470 181.172,39.082 181.172,38.666 C181.172,38.250 181.242,37.862 181.382,37.502 C181.522,37.142 181.718,36.830 181.970,36.566 C182.222,36.302 182.526,36.094 182.882,35.942 C183.238,35.790 183.636,35.714 184.076,35.714 C184.484,35.714 184.880,35.808 185.264,35.996 C185.648,36.184 185.960,36.462 186.200,36.830 L186.224,36.830 L186.224,32.402 L187.040,32.402 L187.040,41.474 L186.224,41.474 L186.224,40.526 ZM186.158,37.772 C186.050,37.496 185.900,37.256 185.708,37.052 C185.516,36.848 185.288,36.688 185.024,36.572 C184.760,36.456 184.472,36.398 184.160,36.398 C183.824,36.398 183.524,36.458 183.260,36.578 C182.996,36.698 182.774,36.860 182.594,37.064 C182.414,37.268 182.276,37.508 182.180,37.784 C182.084,38.060 182.036,38.354 182.036,38.666 C182.036,38.978 182.084,39.272 182.180,39.548 C182.276,39.824 182.414,40.064 182.594,40.268 C182.774,40.472 182.996,40.632 183.260,40.748 C183.524,40.864 183.824,40.922 184.160,40.922 C184.472,40.922 184.760,40.864 185.024,40.748 C185.288,40.632 185.516,40.474 185.708,40.274 C185.900,40.074 186.050,39.836 186.158,39.560 C186.266,39.284 186.320,38.986 186.320,38.666 C186.320,38.346 186.266,38.048 186.158,37.772 ZM179.192,41.030 C179.176,40.870 179.168,40.714 179.168,40.562 L179.144,40.562 C178.888,40.938 178.598,41.208 178.274,41.372 C177.950,41.536 177.560,41.618 177.104,41.618 C176.888,41.618 176.666,41.588 176.438,41.528 C176.210,41.468 176.002,41.369 175.814,41.233 C175.626,41.096 175.470,40.920 175.346,40.703 C175.222,40.486 175.160,40.222 175.160,39.908 C175.160,39.475 175.270,39.132 175.490,38.879 C175.710,38.626 176.004,38.438 176.372,38.313 C176.740,38.189 177.162,38.108 177.638,38.072 C178.114,38.036 178.608,38.018 179.120,38.018 L179.120,37.839 C179.120,37.355 178.992,36.994 178.736,36.755 C178.480,36.517 178.108,36.398 177.620,36.398 C177.284,36.398 176.972,36.458 176.684,36.578 C176.396,36.698 176.152,36.858 175.952,37.058 L175.496,36.518 C175.728,36.286 176.034,36.094 176.414,35.942 C176.794,35.790 177.224,35.714 177.704,35.714 C178.008,35.714 178.292,35.756 178.556,35.840 C178.820,35.924 179.052,36.050 179.252,36.218 C179.452,36.386 179.608,36.598 179.720,36.854 C179.832,37.110 179.888,37.410 179.888,37.754 L179.888,40.214 C179.888,40.430 179.896,40.654 179.912,40.886 C179.928,41.118 179.952,41.314 179.984,41.474 L179.252,41.474 C179.228,41.338 179.208,41.190 179.192,41.030 ZM179.120,38.666 L178.880,38.666 C178.544,38.666 178.206,38.680 177.866,38.708 C177.526,38.736 177.218,38.792 176.942,38.876 C176.666,38.960 176.440,39.082 176.264,39.242 C176.088,39.402 176.000,39.614 176.000,39.878 C176.000,40.078 176.038,40.246 176.114,40.382 C176.190,40.518 176.292,40.628 176.420,40.712 C176.548,40.796 176.690,40.856 176.846,40.892 C177.002,40.928 177.160,40.946 177.320,40.946 C177.608,40.946 177.864,40.896 178.088,40.796 C178.312,40.696 178.500,40.560 178.652,40.388 C178.804,40.216 178.920,40.018 179.000,39.794 C179.080,39.570 179.120,39.334 179.120,39.086 L179.120,38.666 ZM170.612,40.268 C170.796,40.472 171.020,40.632 171.284,40.748 C171.548,40.864 171.844,40.922 172.172,40.922 C172.532,40.922 172.836,40.854 173.084,40.718 C173.332,40.582 173.536,40.406 173.696,40.190 L174.308,40.646 C174.068,40.942 173.774,41.178 173.426,41.354 C173.078,41.530 172.660,41.618 172.172,41.618 C171.716,41.618 171.304,41.544 170.936,41.396 C170.568,41.248 170.254,41.042 169.994,40.778 C169.734,40.514 169.532,40.202 169.388,39.842 C169.244,39.482 169.172,39.090 169.172,38.666 C169.172,38.242 169.244,37.850 169.388,37.490 C169.532,37.130 169.734,36.818 169.994,36.554 C170.254,36.290 170.568,36.084 170.936,35.936 C171.304,35.788 171.716,35.714 172.172,35.714 C172.548,35.714 172.930,35.796 173.318,35.960 C173.706,36.124 174.020,36.366 174.260,36.686 L173.624,37.142 C173.488,36.926 173.290,36.748 173.030,36.608 C172.770,36.468 172.488,36.398 172.184,36.398 C171.856,36.398 171.560,36.456 171.296,36.572 C171.032,36.688 170.806,36.848 170.618,37.052 C170.430,37.256 170.286,37.496 170.186,37.772 C170.086,38.048 170.036,38.346 170.036,38.666 C170.036,38.986 170.086,39.282 170.186,39.554 C170.286,39.826 170.428,40.064 170.612,40.268 ZM166.884,39.242 L162.492,39.242 L161.568,41.474 L160.620,41.474 L164.292,32.978 L165.132,32.978 L168.780,41.474 L167.820,41.474 L166.884,39.242 ZM164.688,33.938 L162.816,38.450 L166.560,38.450 L164.688,33.938 ZM156.992,33.002 C156.904,32.986 156.804,32.978 156.692,32.978 C156.476,32.978 156.298,33.014 156.158,33.086 C156.018,33.158 155.910,33.260 155.834,33.392 C155.758,33.524 155.706,33.678 155.678,33.854 C155.650,34.030 155.636,34.218 155.636,34.418 L155.636,35.858 L156.956,35.858 L156.956,36.542 L155.636,36.542 L155.636,41.474 L154.820,41.474 L154.820,36.542 L153.644,36.542 L153.644,35.858 L154.820,35.858 L154.820,34.322 C154.820,33.682 154.976,33.178 155.288,32.810 C155.600,32.442 156.080,32.258 156.728,32.258 C156.832,32.258 156.944,32.264 157.064,32.276 C157.184,32.288 157.296,32.310 157.400,32.342 L157.256,33.062 C157.168,33.038 157.080,33.018 156.992,33.002 ZM152.192,41.030 C152.176,40.870 152.168,40.714 152.168,40.562 L152.144,40.562 C151.888,40.938 151.598,41.208 151.274,41.372 C150.950,41.536 150.560,41.618 150.104,41.618 C149.888,41.618 149.666,41.588 149.438,41.528 C149.210,41.468 149.002,41.369 148.814,41.233 C148.626,41.096 148.470,40.920 148.346,40.703 C148.222,40.486 148.160,40.222 148.160,39.908 C148.160,39.475 148.270,39.132 148.490,38.879 C148.710,38.626 149.004,38.438 149.372,38.313 C149.740,38.189 150.162,38.108 150.638,38.072 C151.114,38.036 151.608,38.018 152.120,38.018 L152.120,37.839 C152.120,37.355 151.992,36.994 151.736,36.755 C151.480,36.517 151.108,36.398 150.620,36.398 C150.284,36.398 149.972,36.458 149.684,36.578 C149.396,36.698 149.152,36.858 148.952,37.058 L148.496,36.518 C148.728,36.286 149.034,36.094 149.414,35.942 C149.794,35.790 150.224,35.714 150.704,35.714 C151.008,35.714 151.292,35.756 151.556,35.840 C151.820,35.924 152.052,36.050 152.252,36.218 C152.452,36.386 152.608,36.598 152.720,36.854 C152.832,37.110 152.888,37.410 152.888,37.754 L152.888,40.214 C152.888,40.430 152.896,40.654 152.912,40.886 C152.928,41.118 152.952,41.314 152.984,41.474 L152.252,41.474 C152.228,41.338 152.208,41.190 152.192,41.030 ZM152.120,38.666 L151.880,38.666 C151.544,38.666 151.206,38.680 150.866,38.708 C150.526,38.736 150.218,38.792 149.942,38.876 C149.666,38.960 149.440,39.082 149.264,39.242 C149.088,39.402 149.000,39.614 149.000,39.878 C149.000,40.078 149.038,40.246 149.114,40.382 C149.190,40.518 149.292,40.628 149.420,40.712 C149.548,40.796 149.690,40.856 149.846,40.892 C150.002,40.928 150.160,40.946 150.320,40.946 C150.608,40.946 150.864,40.896 151.088,40.796 C151.312,40.696 151.500,40.560 151.652,40.388 C151.804,40.216 151.920,40.018 152.000,39.794 C152.080,39.570 152.120,39.334 152.120,39.086 L152.120,38.666 ZM142.024,38.882 C142.032,39.162 142.088,39.426 142.192,39.674 C142.296,39.922 142.440,40.138 142.624,40.322 C142.808,40.506 143.024,40.652 143.272,40.760 C143.520,40.868 143.788,40.922 144.076,40.922 C144.500,40.922 144.866,40.824 145.174,40.628 C145.482,40.432 145.716,40.206 145.876,39.950 L146.488,40.430 C146.152,40.854 145.782,41.158 145.378,41.342 C144.974,41.526 144.540,41.618 144.076,41.618 C143.660,41.618 143.274,41.544 142.918,41.396 C142.562,41.248 142.256,41.042 142.000,40.778 C141.744,40.514 141.542,40.202 141.394,39.842 C141.246,39.482 141.172,39.090 141.172,38.666 C141.172,38.242 141.244,37.850 141.388,37.490 C141.532,37.130 141.732,36.818 141.988,36.554 C142.244,36.290 142.544,36.084 142.888,35.936 C143.232,35.788 143.604,35.714 144.004,35.714 C144.444,35.714 144.832,35.788 145.168,35.936 C145.504,36.084 145.784,36.284 146.008,36.536 C146.232,36.788 146.402,37.082 146.518,37.418 C146.634,37.754 146.692,38.114 146.692,38.498 C146.692,38.554 146.692,38.614 146.692,38.678 C146.692,38.742 146.688,38.810 146.680,38.882 L142.024,38.882 ZM145.354,36.920 C145.038,36.572 144.588,36.398 144.004,36.398 C143.732,36.398 143.480,36.448 143.248,36.548 C143.016,36.648 142.812,36.784 142.636,36.956 C142.460,37.128 142.320,37.324 142.216,37.544 C142.112,37.764 142.052,37.994 142.036,38.234 L145.864,38.234 C145.840,37.706 145.670,37.268 145.354,36.920 ZM138.604,32.402 L139.420,32.402 L139.420,41.474 L138.604,41.474 L138.604,32.402 ZM136.192,41.030 C136.176,40.870 136.168,40.714 136.168,40.562 L136.144,40.562 C135.888,40.938 135.598,41.208 135.274,41.372 C134.950,41.536 134.560,41.618 134.104,41.618 C133.888,41.618 133.666,41.588 133.438,41.528 C133.210,41.468 133.002,41.369 132.814,41.233 C132.626,41.096 132.470,40.920 132.346,40.703 C132.222,40.486 132.160,40.222 132.160,39.908 C132.160,39.475 132.270,39.132 132.490,38.879 C132.710,38.626 133.004,38.438 133.372,38.313 C133.740,38.189 134.162,38.108 134.638,38.072 C135.114,38.036 135.608,38.018 136.120,38.018 L136.120,37.839 C136.120,37.355 135.992,36.994 135.736,36.755 C135.480,36.517 135.108,36.398 134.620,36.398 C134.284,36.398 133.972,36.458 133.684,36.578 C133.396,36.698 133.152,36.858 132.952,37.058 L132.496,36.518 C132.728,36.286 133.034,36.094 133.414,35.942 C133.794,35.790 134.224,35.714 134.704,35.714 C135.008,35.714 135.292,35.756 135.556,35.840 C135.820,35.924 136.052,36.050 136.252,36.218 C136.452,36.386 136.608,36.598 136.720,36.854 C136.832,37.110 136.888,37.410 136.888,37.754 L136.888,40.214 C136.888,40.430 136.896,40.654 136.912,40.886 C136.928,41.118 136.952,41.314 136.984,41.474 L136.252,41.474 C136.228,41.338 136.208,41.190 136.192,41.030 ZM136.120,38.666 L135.880,38.666 C135.544,38.666 135.206,38.680 134.866,38.708 C134.526,38.736 134.218,38.792 133.942,38.876 C133.666,38.960 133.440,39.082 133.264,39.242 C133.088,39.402 133.000,39.614 133.000,39.878 C133.000,40.078 133.038,40.246 133.114,40.382 C133.190,40.518 133.292,40.628 133.420,40.712 C133.548,40.796 133.690,40.856 133.846,40.892 C134.002,40.928 134.160,40.946 134.320,40.946 C134.608,40.946 134.864,40.896 135.088,40.796 C135.312,40.696 135.500,40.560 135.652,40.388 C135.804,40.216 135.920,40.018 136.000,39.794 C136.080,39.570 136.120,39.334 136.120,39.086 L136.120,38.666 ZM126.024,38.882 C126.032,39.162 126.088,39.426 126.192,39.674 C126.296,39.922 126.440,40.138 126.624,40.322 C126.808,40.506 127.024,40.652 127.272,40.760 C127.520,40.868 127.788,40.922 128.076,40.922 C128.500,40.922 128.866,40.824 129.174,40.628 C129.482,40.432 129.716,40.206 129.876,39.950 L130.488,40.430 C130.152,40.854 129.782,41.158 129.378,41.342 C128.974,41.526 128.540,41.618 128.076,41.618 C127.660,41.618 127.274,41.544 126.918,41.396 C126.562,41.248 126.256,41.042 126.000,40.778 C125.744,40.514 125.542,40.202 125.394,39.842 C125.246,39.482 125.172,39.090 125.172,38.666 C125.172,38.242 125.244,37.850 125.388,37.490 C125.532,37.130 125.732,36.818 125.988,36.554 C126.244,36.290 126.544,36.084 126.888,35.936 C127.232,35.788 127.604,35.714 128.004,35.714 C128.444,35.714 128.832,35.788 129.168,35.936 C129.504,36.084 129.784,36.284 130.008,36.536 C130.232,36.788 130.402,37.082 130.518,37.418 C130.634,37.754 130.692,38.114 130.692,38.498 C130.692,38.554 130.692,38.614 130.692,38.678 C130.692,38.742 130.688,38.810 130.680,38.882 L126.024,38.882 ZM129.354,36.920 C129.038,36.572 128.588,36.398 128.004,36.398 C127.732,36.398 127.480,36.448 127.248,36.548 C127.016,36.648 126.812,36.784 126.636,36.956 C126.460,37.128 126.320,37.324 126.216,37.544 C126.112,37.764 126.052,37.994 126.036,38.234 L129.864,38.234 C129.840,37.706 129.670,37.268 129.354,36.920 ZM122.352,41.474 L121.488,41.474 L121.488,33.746 L118.644,33.746 L118.644,32.978 L125.196,32.978 L125.196,33.746 L122.352,33.746 L122.352,41.474 ZM111.726,43.964 C111.466,44.224 111.092,44.354 110.604,44.354 C110.356,44.354 110.112,44.330 109.872,44.282 L109.956,43.538 C110.148,43.602 110.348,43.634 110.556,43.634 C110.836,43.634 111.056,43.548 111.216,43.376 C111.376,43.204 111.516,42.958 111.636,42.638 L112.092,41.462 L109.692,35.858 L110.604,35.858 L112.512,40.598 L112.536,40.598 L114.276,35.858 L115.164,35.858 L112.368,42.926 C112.200,43.358 111.986,43.704 111.726,43.964 ZM107.604,32.402 L108.420,32.402 L108.420,41.474 L107.604,41.474 L107.604,32.402 ZM106.376,36.506 C106.264,36.490 106.152,36.482 106.040,36.482 C105.824,36.482 105.616,36.522 105.416,36.602 C105.216,36.682 105.042,36.807 104.894,36.979 C104.746,37.151 104.626,37.370 104.534,37.637 C104.442,37.905 104.396,38.226 104.396,38.601 L104.396,41.474 L103.580,41.474 L103.580,37.094 C103.580,36.942 103.576,36.746 103.568,36.506 C103.560,36.266 103.548,36.050 103.532,35.858 L104.312,35.858 C104.328,36.010 104.340,36.178 104.348,36.362 C104.356,36.546 104.360,36.698 104.360,36.818 L104.384,36.818 C104.544,36.490 104.784,36.224 105.104,36.020 C105.424,35.816 105.784,35.714 106.184,35.714 C106.288,35.714 106.382,35.718 106.466,35.726 C106.550,35.734 106.636,35.750 106.724,35.774 L106.616,36.554 C106.568,36.538 106.488,36.522 106.376,36.506 ZM97.024,38.882 C97.032,39.162 97.088,39.426 97.192,39.674 C97.296,39.922 97.440,40.138 97.624,40.322 C97.808,40.506 98.024,40.652 98.272,40.760 C98.520,40.868 98.788,40.922 99.076,40.922 C99.500,40.922 99.866,40.824 100.174,40.628 C100.482,40.432 100.716,40.206 100.876,39.950 L101.488,40.430 C101.152,40.854 100.782,41.158 100.378,41.342 C99.974,41.526 99.540,41.618 99.076,41.618 C98.660,41.618 98.274,41.544 97.918,41.396 C97.562,41.248 97.256,41.042 97.000,40.778 C96.744,40.514 96.542,40.202 96.394,39.842 C96.246,39.482 96.172,39.090 96.172,38.666 C96.172,38.242 96.244,37.850 96.388,37.490 C96.532,37.130 96.732,36.818 96.988,36.554 C97.244,36.290 97.544,36.084 97.888,35.936 C98.232,35.788 98.604,35.714 99.004,35.714 C99.444,35.714 99.832,35.788 100.168,35.936 C100.504,36.084 100.784,36.284 101.008,36.536 C101.232,36.788 101.402,37.082 101.518,37.418 C101.634,37.754 101.692,38.114 101.692,38.498 C101.692,38.554 101.692,38.614 101.692,38.678 C101.692,38.742 101.688,38.810 101.680,38.882 L97.024,38.882 ZM100.354,36.920 C100.038,36.572 99.588,36.398 99.004,36.398 C98.732,36.398 98.480,36.448 98.248,36.548 C98.016,36.648 97.812,36.784 97.636,36.956 C97.460,37.128 97.320,37.324 97.216,37.544 C97.112,37.764 97.052,37.994 97.036,38.234 L100.864,38.234 C100.840,37.706 100.670,37.268 100.354,36.920 ZM93.248,38.366 C93.248,37.774 93.138,37.298 92.918,36.938 C92.698,36.578 92.324,36.398 91.796,36.398 C91.500,36.398 91.250,36.458 91.046,36.578 C90.842,36.698 90.678,36.856 90.554,37.052 C90.430,37.248 90.340,37.470 90.284,37.718 C90.228,37.966 90.200,38.222 90.200,38.486 L90.200,41.474 L89.384,41.474 L89.384,38.198 C89.384,37.926 89.364,37.678 89.324,37.454 C89.284,37.230 89.214,37.040 89.114,36.884 C89.014,36.728 88.876,36.608 88.700,36.524 C88.524,36.440 88.300,36.398 88.028,36.398 C87.836,36.398 87.642,36.442 87.446,36.530 C87.250,36.618 87.074,36.752 86.918,36.932 C86.762,37.112 86.636,37.340 86.540,37.616 C86.444,37.892 86.396,38.218 86.396,38.594 L86.396,41.474 L85.580,41.474 L85.580,37.094 C85.580,36.942 85.576,36.746 85.568,36.506 C85.560,36.266 85.548,36.050 85.532,35.858 L86.312,35.858 C86.328,36.010 86.340,36.178 86.348,36.362 C86.356,36.546 86.360,36.698 86.360,36.818 L86.384,36.818 C86.544,36.490 86.790,36.224 87.122,36.020 C87.454,35.816 87.824,35.714 88.232,35.714 C88.384,35.714 88.542,35.730 88.706,35.762 C88.870,35.794 89.030,35.856 89.186,35.948 C89.342,36.040 89.486,36.162 89.618,36.314 C89.750,36.466 89.864,36.662 89.960,36.902 C90.152,36.518 90.414,36.224 90.746,36.020 C91.078,35.816 91.472,35.714 91.928,35.714 C92.640,35.714 93.174,35.926 93.530,36.350 C93.886,36.774 94.064,37.334 94.064,38.030 L94.064,41.474 L93.248,41.474 L93.248,38.366 ZM84.376,36.506 C84.264,36.490 84.152,36.482 84.040,36.482 C83.824,36.482 83.616,36.522 83.416,36.602 C83.216,36.682 83.042,36.807 82.894,36.979 C82.746,37.151 82.626,37.370 82.534,37.637 C82.442,37.905 82.396,38.226 82.396,38.601 L82.396,41.474 L81.580,41.474 L81.580,37.094 C81.580,36.942 81.576,36.746 81.568,36.506 C81.560,36.266 81.548,36.050 81.532,35.858 L82.312,35.858 C82.328,36.010 82.340,36.178 82.348,36.362 C82.356,36.546 82.360,36.698 82.360,36.818 L82.384,36.818 C82.544,36.490 82.784,36.224 83.104,36.020 C83.424,35.816 83.784,35.714 84.184,35.714 C84.288,35.714 84.382,35.718 84.466,35.726 C84.550,35.734 84.636,35.750 84.724,35.774 L84.616,36.554 C84.568,36.538 84.488,36.522 84.376,36.506 ZM79.320,40.778 C79.056,41.042 78.740,41.248 78.372,41.396 C78.004,41.544 77.600,41.618 77.160,41.618 C76.728,41.618 76.328,41.544 75.960,41.396 C75.592,41.248 75.276,41.042 75.012,40.778 C74.748,40.514 74.542,40.202 74.394,39.842 C74.246,39.482 74.172,39.090 74.172,38.666 C74.172,38.242 74.246,37.850 74.394,37.490 C74.542,37.130 74.748,36.818 75.012,36.554 C75.276,36.290 75.592,36.084 75.960,35.936 C76.328,35.788 76.728,35.714 77.160,35.714 C77.600,35.714 78.004,35.788 78.372,35.936 C78.740,36.084 79.056,36.290 79.320,36.554 C79.584,36.818 79.790,37.130 79.938,37.490 C80.086,37.850 80.160,38.242 80.160,38.666 C80.160,39.090 80.086,39.482 79.938,39.842 C79.790,40.202 79.584,40.514 79.320,40.778 ZM79.146,37.784 C79.046,37.508 78.904,37.268 78.720,37.064 C78.536,36.860 78.312,36.698 78.048,36.578 C77.784,36.458 77.488,36.398 77.160,36.398 C76.832,36.398 76.538,36.458 76.278,36.578 C76.018,36.698 75.796,36.860 75.612,37.064 C75.428,37.268 75.286,37.508 75.186,37.784 C75.086,38.060 75.036,38.354 75.036,38.666 C75.036,38.978 75.086,39.272 75.186,39.548 C75.286,39.824 75.428,40.064 75.612,40.268 C75.796,40.472 76.018,40.632 76.278,40.748 C76.538,40.864 76.832,40.922 77.160,40.922 C77.488,40.922 77.784,40.864 78.048,40.748 C78.312,40.632 78.536,40.472 78.720,40.268 C78.904,40.064 79.046,39.824 79.146,39.548 C79.246,39.272 79.296,38.978 79.296,38.666 C79.296,38.354 79.246,38.060 79.146,37.784 ZM69.492,36.686 L73.452,36.686 L73.452,37.454 L69.492,37.454 L69.492,41.474 L68.628,41.474 L68.628,32.978 L73.752,32.978 L73.752,33.746 L69.492,33.746 L69.492,36.686 Z" class="cls-1"/>
    <path d="M9.171,18.195 C8.535,18.825 7.503,18.825 6.865,18.195 C6.229,17.565 6.229,16.544 6.865,15.913 L22.478,0.476 C23.117,-0.155 24.149,-0.155 24.785,0.476 C25.422,1.105 25.424,2.126 24.787,2.756 L9.171,18.195 ZM8.928,9.312 C8.291,9.943 7.259,9.942 6.621,9.312 C5.983,8.683 5.983,7.661 6.621,7.032 L13.264,0.462 C13.903,-0.169 14.935,-0.169 15.571,0.462 C16.208,1.093 16.209,2.113 15.571,2.742 L8.928,9.312 ZM2.775,6.271 C2.139,6.901 1.107,6.901 0.469,6.271 C-0.169,5.641 -0.169,4.621 0.469,3.990 L4.014,0.486 C4.651,-0.144 5.683,-0.144 6.321,0.486 C6.956,1.116 6.958,2.137 6.321,2.766 L2.775,6.271 ZM22.492,9.586 C23.131,8.956 24.163,8.956 24.798,9.586 C25.436,10.216 25.437,11.237 24.800,11.867 L18.156,18.436 C17.519,19.067 16.486,19.067 15.848,18.436 C15.211,17.807 15.211,16.787 15.848,16.156 L22.492,9.586 ZM22.468,18.734 C23.105,18.105 24.139,18.105 24.775,18.733 C25.412,19.365 25.413,20.385 24.775,21.015 L21.231,24.520 C20.595,25.150 19.561,25.150 18.924,24.520 C18.288,23.889 18.288,22.869 18.924,22.238 L22.468,18.734 Z" class="cls-2"/>
    <path d="M209.141,22.355 C209.141,15.528 209.141,8.761 209.141,1.748 C210.132,1.748 211.008,1.748 212.009,1.748 C212.009,8.663 212.009,15.424 212.009,22.355 C211.039,22.355 210.165,22.355 209.141,22.355 ZM205.183,18.651 C203.928,21.802 200.426,22.746 197.284,22.257 C193.303,21.638 191.784,18.217 191.786,14.563 C191.792,8.801 196.068,5.676 201.499,7.466 C204.944,8.602 206.075,12.293 205.932,15.550 C205.888,16.555 205.554,17.719 205.183,18.651 ZM202.646,14.081 C202.546,12.634 202.034,11.093 200.775,10.237 C199.122,9.113 196.733,9.758 195.751,11.378 C194.904,12.776 194.811,14.686 195.165,16.245 C195.647,18.373 197.173,19.885 199.529,19.638 C202.248,19.352 202.798,16.292 202.646,14.081 ZM188.030,18.651 C186.775,21.802 183.273,22.746 180.131,22.257 C176.150,21.638 174.630,18.217 174.633,14.563 C174.639,8.801 178.916,5.676 184.346,7.466 C187.791,8.602 188.923,12.293 188.779,15.550 C188.736,16.555 188.401,17.719 188.030,18.651 ZM185.494,14.081 C185.393,12.634 184.881,11.093 183.622,10.237 C181.970,9.113 179.581,9.758 178.598,11.378 C177.751,12.776 177.659,14.686 178.013,16.245 C178.494,18.373 180.020,19.885 182.376,19.638 C185.096,19.352 185.645,16.292 185.494,14.081 ZM168.231,13.343 C168.231,12.219 168.002,11.379 167.544,10.827 C167.086,10.273 166.360,9.996 165.366,9.996 C164.051,9.996 163.085,10.385 162.468,11.163 C161.850,11.940 161.541,13.242 161.541,15.069 L161.541,22.302 L158.411,22.302 L158.411,1.802 L161.541,1.802 L161.541,7.005 C161.541,7.840 161.488,8.732 161.382,9.680 L161.582,9.680 C162.008,8.978 162.601,8.433 163.360,8.047 C164.120,7.660 165.005,7.467 166.019,7.467 C169.589,7.467 171.375,9.246 171.375,12.802 L171.375,22.302 L168.231,22.302 L168.231,13.343 ZM147.680,11.326 C146.026,13.665 146.345,19.299 149.915,19.628 C151.368,19.762 152.917,19.325 154.306,18.958 C154.929,21.708 154.650,22.099 151.796,22.302 C150.104,22.421 148.025,22.450 146.508,21.588 C143.241,19.732 142.838,14.073 144.131,11.009 C145.195,8.489 147.598,6.878 150.372,6.980 C151.842,7.034 153.686,7.420 155.000,8.091 C154.639,8.961 154.332,9.703 154.005,10.490 C151.684,9.783 149.402,8.897 147.680,11.326 ZM140.274,14.929 C140.792,16.744 140.579,18.920 139.258,20.345 C137.956,21.753 135.787,22.240 133.923,22.313 C132.861,22.355 131.775,22.308 130.717,22.211 C127.820,21.945 127.588,21.556 128.025,18.704 C129.631,18.963 131.204,19.443 132.830,19.589 C134.102,19.703 135.792,19.748 136.652,18.618 C138.064,16.763 136.635,15.184 134.939,14.327 C133.247,13.473 131.393,12.922 129.900,11.711 C128.331,10.438 127.767,8.359 128.177,6.402 C128.925,2.828 132.355,2.264 135.520,2.501 C137.158,2.624 138.779,2.920 140.415,3.080 C139.894,4.396 139.565,5.230 139.281,5.946 C139.234,6.065 136.711,5.415 136.464,5.370 C134.866,5.084 132.952,5.106 131.869,6.506 C130.810,7.873 131.854,9.340 133.140,10.026 C135.521,11.296 139.433,11.980 140.274,14.929 ZM121.228,13.343 C121.228,12.219 120.998,11.379 120.541,10.827 C120.083,10.273 119.357,9.996 118.363,9.996 C117.048,9.996 116.081,10.385 115.465,11.163 C114.847,11.940 114.538,13.242 114.538,15.069 L114.538,22.302 L111.407,22.302 L111.407,1.802 L114.538,1.802 L114.538,7.005 C114.538,7.840 114.485,8.732 114.378,9.680 L114.579,9.680 C115.005,8.978 115.598,8.433 116.357,8.047 C117.117,7.660 118.002,7.467 119.015,7.467 C122.586,7.467 124.372,9.246 124.372,12.802 L124.372,22.302 L121.228,22.302 L121.228,13.343 ZM100.900,11.326 C99.246,13.665 99.564,19.299 103.136,19.628 C104.588,19.762 106.137,19.325 107.527,18.958 C108.150,21.708 107.870,22.099 105.016,22.302 C103.324,22.421 101.246,22.450 99.729,21.588 C96.461,19.732 96.059,14.073 97.352,11.009 C98.414,8.489 100.819,6.878 103.592,6.980 C105.062,7.034 106.906,7.420 108.220,8.091 C107.859,8.961 107.551,9.703 107.226,10.490 C104.905,9.783 102.622,8.897 100.900,11.326 ZM93.503,21.192 C93.503,21.437 93.449,21.682 93.393,22.145 C92.372,22.145 91.491,22.145 90.263,22.145 C90.263,19.456 90.263,16.769 90.202,14.078 C90.160,12.212 90.205,10.173 87.931,9.732 C86.691,9.492 85.240,9.896 84.495,10.925 C83.717,12.001 83.652,13.377 83.585,14.650 C83.505,16.167 83.493,17.683 83.505,19.202 C83.513,20.177 83.530,21.152 83.530,22.127 C82.375,22.127 81.447,22.127 80.414,22.127 C80.366,21.572 80.288,21.080 80.288,20.589 C80.278,16.243 80.282,11.898 80.282,6.956 C81.655,7.542 82.641,7.962 83.848,8.477 C84.397,8.215 85.369,7.582 86.436,7.274 C87.207,7.051 88.209,7.049 89.008,7.074 C89.773,7.098 90.545,7.241 91.215,7.622 C92.739,8.486 93.260,10.278 93.440,11.897 C93.606,13.397 93.532,14.924 93.528,16.433 C93.524,18.019 93.506,19.606 93.503,21.192 ZM73.962,20.500 C72.342,22.144 70.378,22.534 68.215,22.320 C65.621,22.061 64.200,21.042 64.040,18.503 C63.811,14.871 63.981,11.215 63.981,7.486 C65.008,7.486 65.945,7.486 67.111,7.486 C67.111,10.318 67.102,13.083 67.114,15.847 C67.128,18.567 68.095,19.890 70.036,19.886 C72.261,19.882 73.692,18.311 73.736,15.701 C73.782,13.000 73.746,10.297 73.746,7.506 C74.929,7.506 75.914,7.506 76.996,7.506 C76.996,12.389 76.996,17.168 76.996,22.126 C76.215,22.163 75.481,22.199 74.684,22.237 C74.451,21.675 74.239,21.165 73.962,20.500 ZM58.169,22.244 C57.926,21.685 57.684,21.130 57.319,20.287 C57.394,20.460 56.030,21.440 55.854,21.551 C53.992,22.729 51.047,22.717 49.187,21.530 C48.018,20.784 47.579,19.314 47.549,18.001 C47.519,16.746 48.111,15.205 49.224,14.481 C50.535,13.627 52.216,13.392 53.747,13.251 C54.052,13.223 57.014,13.071 57.010,13.143 C57.304,9.561 56.200,9.158 50.114,10.467 C49.814,9.826 49.498,9.158 49.129,8.378 C49.090,8.293 51.463,7.453 51.689,7.395 C53.168,7.012 54.800,6.955 56.313,7.178 C57.532,7.358 58.972,7.999 59.674,9.068 C60.051,9.643 60.187,10.317 60.233,10.998 C60.259,11.370 60.258,11.743 60.256,12.104 C60.237,15.443 60.248,18.784 60.248,22.123 C59.536,22.165 58.929,22.200 58.169,22.244 ZM54.782,15.253 C53.243,15.521 50.667,16.184 51.169,18.267 C51.379,19.138 52.314,19.771 53.184,19.902 C55.605,20.266 57.172,18.413 57.091,14.895 C57.091,14.933 55.005,15.215 54.782,15.253 ZM32.734,2.607 C33.765,2.607 34.639,2.607 35.719,2.607 C35.719,8.156 35.719,13.623 35.719,19.295 C38.576,19.295 41.233,19.295 44.007,19.295 C44.007,20.344 44.007,21.184 44.007,22.123 C40.273,22.123 36.587,22.123 32.734,22.123 C32.734,15.663 32.734,9.202 32.734,2.607 Z" class="cls-3"/>
  </g>
</svg>
